<svg preserveAspectRatio="none" overflow="visible" style="display: block;" width="24" height="24" viewBox="0 0 24 24" fill="none" xmlns="http://www.w3.org/2000/svg">
<g id="menu">
<path id="Vector" d="M3.16225 19.2303C3.2519 19.3441 3.37227 19.4298 3.50936 19.4777C3.64647 19.5255 3.79468 19.5335 3.93687 19.5006C4.17518 19.4409 4.39984 19.3352 4.59808 19.1893C4.86029 18.9952 5.13302 18.7885 5.39883 18.5655C5.52886 18.4564 5.65711 18.3434 5.78164 18.226C6.52502 17.5267 7.27327 16.8094 7.99738 16.1155C9.35298 14.8164 10.7543 13.4727 12.1732 12.1977C14.1043 10.4618 15.9001 8.54284 17.6368 6.68704C18.0923 6.20077 18.5481 5.7156 19.0043 5.23141C19.0407 5.19305 19.0785 5.15499 19.1168 5.11641C19.3904 4.84089 19.7311 4.49783 19.7724 3.78264C19.7736 3.76052 19.7696 3.73836 19.7603 3.71834C19.7511 3.69824 19.7373 3.68069 19.7197 3.66728C19.7023 3.65377 19.6816 3.64483 19.6598 3.64109C19.638 3.63727 19.6155 3.63884 19.5943 3.64567C18.6715 3.94247 18.0447 4.40311 17.4311 4.88863L16.8957 5.31243C15.1996 6.65435 13.446 8.04169 11.809 9.52499C9.05764 12.0185 6.50403 14.6282 3.6897 17.5358C3.42616 17.8103 3.2102 18.1267 3.05088 18.4716C2.99574 18.5963 2.97694 18.7338 2.99665 18.8681C3.01636 19.0023 3.07377 19.1279 3.16225 19.2303Z" fill="black"/>
<path id="Vector_2" d="M2.46837 5.18976C2.58756 5.45482 2.75473 5.69592 2.96149 5.90088C3.07586 6.01211 3.19006 6.12366 3.30412 6.23554C3.83108 6.75122 4.37455 7.28315 4.94993 7.76596C4.9944 7.80327 5.03894 7.84068 5.0841 7.87718C6.18315 8.77634 7.30973 9.67881 8.39925 10.5516C9.84465 11.7096 11.3394 12.9071 12.7872 14.1107C14.8596 15.8335 17.1297 17.34 19.3252 18.797L19.3955 18.8437C19.5421 18.9258 19.7024 18.9801 19.8683 19.0038C19.9735 19.0269 20.0925 19.0532 20.2332 19.0919C20.2584 19.0989 20.2849 19.0986 20.3097 19.0911C20.3345 19.0836 20.3566 19.0692 20.3734 19.0496C20.3903 19.0301 20.4012 19.006 20.4049 18.9804C20.4084 18.9547 20.4047 18.9284 20.394 18.9047C20.332 18.7659 20.2848 18.6431 20.2436 18.5343C20.1898 18.3506 20.1002 18.1791 19.9798 18.0295L19.6252 17.6519C18.9364 16.9179 18.2245 16.1584 17.4683 15.4688C13.3942 11.7526 8.97093 8.32041 4.69339 5.00142L3.92578 4.4057C3.80961 4.3157 3.68468 4.23764 3.55292 4.17275C3.40835 4.09118 3.24193 4.05757 3.07784 4.0768C2.91375 4.09602 2.76054 4.16706 2.64058 4.27962C2.51506 4.3901 2.43011 4.53933 2.39895 4.70396C2.36779 4.8686 2.39221 5.03942 2.46837 5.18976Z" fill="black"/>
</g>
</svg>
